<svg width="20" height="20" viewBox="0 0 20 20" fill="none" xmlns="http://www.w3.org/2000/svg">
<g clip-path="url(#clip0_66_831)">
<path d="M10 18.75C7.67936 18.75 5.45376 17.8281 3.81282 16.1872C2.17187 14.5462 1.25 12.3206 1.25 10C1.25 7.67936 2.17187 5.45376 3.81282 3.81282C5.45376 2.17187 7.67936 1.25 10 1.25C12.3206 1.25 14.5462 2.17187 16.1872 3.81282C17.8281 5.45376 18.75 7.67936 18.75 10C18.75 12.3206 17.8281 14.5462 16.1872 16.1872C14.5462 17.8281 12.3206 18.75 10 18.75ZM10 20C12.6522 20 15.1957 18.9464 17.0711 17.0711C18.9464 15.1957 20 12.6522 20 10C20 7.34784 18.9464 4.8043 17.0711 2.92893C15.1957 1.05357 12.6522 0 10 0C7.34784 0 4.8043 1.05357 2.92893 2.92893C1.05357 4.8043 0 7.34784 0 10C0 12.6522 1.05357 15.1957 2.92893 17.0711C4.8043 18.9464 7.34784 20 10 20Z" fill="black"/>
<path d="M5.8074 5.8075C5.86545 5.7493 5.93442 5.70312 6.01035 5.67161C6.08629 5.6401 6.16769 5.62388 6.2499 5.62388C6.33211 5.62388 6.41351 5.6401 6.48944 5.67161C6.56537 5.70312 6.63434 5.7493 6.6924 5.8075L9.9999 9.11625L13.3074 5.8075C13.3655 5.74939 13.4345 5.70329 13.5104 5.67184C13.5863 5.6404 13.6677 5.62421 13.7499 5.62421C13.8321 5.62421 13.9135 5.6404 13.9894 5.67184C14.0653 5.70329 14.1343 5.74939 14.1924 5.8075C14.2505 5.86561 14.2966 5.9346 14.3281 6.01052C14.3595 6.08644 14.3757 6.16782 14.3757 6.25C14.3757 6.33218 14.3595 6.41355 14.3281 6.48948C14.2966 6.5654 14.2505 6.63439 14.1924 6.6925L10.8836 10L14.1924 13.3075C14.2505 13.3656 14.2966 13.4346 14.3281 13.5105C14.3595 13.5864 14.3757 13.6678 14.3757 13.75C14.3757 13.8322 14.3595 13.9136 14.3281 13.9895C14.2966 14.0654 14.2505 14.1344 14.1924 14.1925C14.1343 14.2506 14.0653 14.2967 13.9894 14.3282C13.9135 14.3596 13.8321 14.3758 13.7499 14.3758C13.6677 14.3758 13.5863 14.3596 13.5104 14.3282C13.4345 14.2967 13.3655 14.2506 13.3074 14.1925L9.9999 10.8837L6.6924 14.1925C6.63429 14.2506 6.5653 14.2967 6.48938 14.3282C6.41345 14.3596 6.33208 14.3758 6.2499 14.3758C6.16772 14.3758 6.08634 14.3596 6.01042 14.3282C5.93449 14.2967 5.86551 14.2506 5.8074 14.1925C5.74929 14.1344 5.70319 14.0654 5.67174 13.9895C5.64029 13.9136 5.62411 13.8322 5.62411 13.75C5.62411 13.6678 5.64029 13.5864 5.67174 13.5105C5.70319 13.4346 5.74929 13.3656 5.8074 13.3075L9.11615 10L5.8074 6.6925C5.74919 6.63444 5.70301 6.56547 5.67151 6.48954C5.64 6.41361 5.62378 6.33221 5.62378 6.25C5.62378 6.16779 5.64 6.08639 5.67151 6.01046C5.70301 5.93453 5.74919 5.86556 5.8074 5.8075Z" fill="black"/>
</g>
<defs>
<clipPath id="clip0_66_831">
<rect width="20" height="20" fill="white"/>
</clipPath>
</defs>
</svg>
