<svg width="21" height="21" viewBox="0 0 21 21" fill="none" xmlns="http://www.w3.org/2000/svg">
<path d="M19.6839 3.12163C19.7999 3.23878 19.8651 3.39746 19.8651 3.56288C19.8651 3.7283 19.7999 3.88697 19.6839 4.00413L18.3882 5.30913L15.9038 2.80913L17.1995 1.50413C17.3159 1.38696 17.4739 1.32114 17.6386 1.32114C17.8033 1.32114 17.9612 1.38696 18.0777 1.50413L19.6839 3.12038V3.12163ZM17.51 6.19163L15.0256 3.69163L6.5625 12.2091C6.49413 12.2779 6.44266 12.3618 6.41219 12.4541L5.41222 15.4716C5.39408 15.5266 5.39151 15.5856 5.40478 15.642C5.41806 15.6984 5.44665 15.75 5.48738 15.791C5.52811 15.832 5.57936 15.8608 5.63541 15.8741C5.69145 15.8875 5.75009 15.8849 5.80475 15.8666L8.80342 14.8604C8.89505 14.8301 8.97841 14.7787 9.0469 14.7104L17.51 6.19163Z" fill="#F3F0E3"/>
<path fill-rule="evenodd" clip-rule="evenodd" d="M1.66943 17.5716C1.66943 18.0689 1.86575 18.5458 2.21518 18.8974C2.56462 19.2491 3.03856 19.4466 3.53273 19.4466H17.1969C17.6911 19.4466 18.165 19.2491 18.5145 18.8974C18.8639 18.5458 19.0602 18.0689 19.0602 17.5716V10.0716C19.0602 9.90586 18.9948 9.74689 18.8783 9.62968C18.7618 9.51247 18.6039 9.44662 18.4391 9.44662C18.2744 9.44662 18.1164 9.51247 17.9999 9.62968C17.8835 9.74689 17.818 9.90586 17.818 10.0716V17.5716C17.818 17.7374 17.7526 17.8964 17.6361 18.0136C17.5196 18.1308 17.3617 18.1966 17.1969 18.1966H3.53273C3.36801 18.1966 3.21003 18.1308 3.09355 18.0136C2.97707 17.8964 2.91163 17.7374 2.91163 17.5716V3.82162C2.91163 3.65586 2.97707 3.49689 3.09355 3.37968C3.21003 3.26247 3.36801 3.19662 3.53273 3.19662H11.607C11.7718 3.19662 11.9297 3.13078 12.0462 3.01357C12.1627 2.89636 12.2281 2.73739 12.2281 2.57162C12.2281 2.40586 12.1627 2.24689 12.0462 2.12968C11.9297 2.01247 11.7718 1.94662 11.607 1.94662H3.53273C3.03856 1.94662 2.56462 2.14417 2.21518 2.4958C1.86575 2.84743 1.66943 3.32434 1.66943 3.82162V17.5716Z" fill="#F3F0E3"/>
</svg>
