<svg width="40" height="40" viewBox="0 0 40 40" fill="none" xmlns="http://www.w3.org/2000/svg">
<path d="M19.9992 28.3333C20.3886 28.3333 20.7153 28.2017 20.9792 27.9383C21.2431 27.675 21.375 27.3486 21.375 26.9592C21.375 26.5698 21.2434 26.2431 20.98 25.9792C20.7167 25.7153 20.3903 25.5833 20.0009 25.5833C19.6115 25.5833 19.2848 25.715 19.0209 25.9783C18.757 26.2417 18.625 26.5681 18.625 26.9575C18.625 27.3469 18.7567 27.6736 19.02 27.9375C19.2834 28.2014 19.6098 28.3333 19.9992 28.3333ZM18.875 21.9583H21.375V11.4167H18.875V21.9583ZM20.0113 36.6667C17.713 36.6667 15.5532 36.2292 13.5321 35.3542C11.5107 34.4792 9.74312 33.2848 8.22921 31.7708C6.71532 30.2569 5.52087 28.4883 4.64587 26.465C3.77087 24.4417 3.33337 22.2798 3.33337 19.9792C3.33337 17.6786 3.77087 15.5167 4.64587 13.4933C5.52087 11.47 6.71532 9.70834 8.22921 8.20834C9.74312 6.70834 11.5117 5.52084 13.535 4.64584C15.5584 3.77084 17.7203 3.33334 20.0209 3.33334C22.3215 3.33334 24.4834 3.77084 26.5067 4.64584C28.53 5.52084 30.2917 6.70834 31.7917 8.20834C33.2917 9.70834 34.4792 11.4723 35.3542 13.5C36.2292 15.5278 36.6667 17.6907 36.6667 19.9888C36.6667 22.2871 36.2292 24.4468 35.3542 26.4679C34.4792 28.4893 33.2917 30.2544 31.7917 31.7633C30.2917 33.2719 28.5278 34.4664 26.5 35.3467C24.4723 36.2267 22.3094 36.6667 20.0113 36.6667ZM20.0209 34.1667C23.9515 34.1667 27.2917 32.7848 30.0417 30.0208C32.7917 27.2569 34.1667 23.9098 34.1667 19.9792C34.1667 16.0486 32.7944 12.7083 30.0496 9.95834C27.3049 7.20834 23.955 5.83334 20 5.83334C16.0834 5.83334 12.7431 7.20569 9.97921 9.95042C7.21532 12.6952 5.83337 16.045 5.83337 20C5.83337 23.9167 7.21532 27.2569 9.97921 30.0208C12.7431 32.7848 16.0903 34.1667 20.0209 34.1667Z" fill="#2A3B2E"/>
</svg>
