<svg width="20" height="20" viewBox="0 0 20 20" fill="none" xmlns="http://www.w3.org/2000/svg">
<path fill-rule="evenodd" clip-rule="evenodd" d="M14.5 9.08333C15.426 9.08333 16.2691 9.33392 17 9.82375V3.04167C17 2.75 16.8819 2.51736 16.6458 2.34375C16.4098 2.17014 16.1527 2.13889 15.875 2.25L12 3.75L7 2L2.58333 3.5C2.40278 3.56944 2.26042 3.67361 2.15625 3.8125C2.05208 3.95139 2 4.11111 2 4.29167V15.9583C2 16.25 2.11806 16.4827 2.35417 16.6562C2.59027 16.8298 2.84722 16.8611 3.125 16.75L7 15.25L10.7148 16.5502C10.3256 15.936 10.0764 15.2628 9.97233 14.5403L7.83333 13.7917V4.04167L11.1667 5.20833V10.5383C11.19 10.5133 11.2137 10.4883 11.2376 10.4636C12.1196 9.55317 13.232 9.08333 14.5 9.08333ZM12.2292 16.4792C12.9375 17.2569 13.6944 17.9861 14.5 18.6667C15.3056 17.9861 16.0625 17.2569 16.7708 16.4792C17.4792 15.7014 17.8333 14.7917 17.8333 13.75C17.8333 12.8056 17.5104 12 16.8646 11.3333C16.2187 10.6667 15.4306 10.3333 14.5 10.3333C13.5694 10.3333 12.7813 10.6667 12.1354 11.3333C11.4896 12 11.1667 12.8056 11.1667 13.75C11.1667 14.7917 11.5208 15.7014 12.2292 16.4792ZM15.1354 14.2396C14.9618 14.4132 14.75 14.5 14.5 14.5C14.25 14.5 14.0382 14.4132 13.8646 14.2396C13.691 14.066 13.6042 13.8542 13.6042 13.6042C13.6042 13.3681 13.691 13.1597 13.8646 12.9792C14.0382 12.7986 14.25 12.7083 14.5 12.7083C14.75 12.7083 14.9618 12.7986 15.1354 12.9792C15.3091 13.1597 15.3958 13.3681 15.3958 13.6042C15.3958 13.8542 15.3091 14.066 15.1354 14.2396Z" fill="#2A3B2E"/>
</svg>
