<svg width="23" height="25" viewBox="0 0 23 25" fill="none" xmlns="http://www.w3.org/2000/svg">
<path fill-rule="evenodd" clip-rule="evenodd" d="M18.1579 10.625C19.503 10.625 20.7277 11.0009 21.7895 11.7356V1.5625C21.7895 1.125 21.6179 0.776037 21.275 0.515625C20.9321 0.255212 20.5587 0.208337 20.1553 0.375L14.5263 2.625L7.26316 0L0.847369 2.25C0.585084 2.35416 0.378289 2.51041 0.226974 2.71875C0.0756579 2.92709 0 3.16666 0 3.4375V20.9375C0 21.375 0.171495 21.724 0.514474 21.9844C0.857452 22.2447 1.23071 22.2916 1.63421 22.125L7.26316 19.875L12.6594 21.8252C12.094 20.904 11.7321 19.8943 11.5809 18.8105L8.47368 17.6875V3.0625L13.3158 4.8125V12.8075C13.3497 12.7699 13.3841 12.7325 13.4188 12.6954C14.7 11.3297 16.316 10.625 18.1579 10.625ZM14.8592 21.7188C15.8882 22.8854 16.9877 23.9791 18.1579 25C19.3281 23.9791 20.4276 22.8854 21.4566 21.7188C22.4855 20.5521 23 19.1875 23 17.625C23 16.2084 22.5309 15 21.5928 14C20.6546 13 19.5097 12.5 18.1579 12.5C16.8061 12.5 15.6612 13 14.723 14C13.7849 15 13.3158 16.2084 13.3158 17.625C13.3158 19.1875 13.8303 20.5521 14.8592 21.7188ZM19.0809 18.3594C18.8288 18.6197 18.5211 18.75 18.1579 18.75C17.7947 18.75 17.4871 18.6197 17.2349 18.3594C16.9827 18.099 16.8566 17.7812 16.8566 17.4062C16.8566 17.0521 16.9827 16.7396 17.2349 16.4687C17.4871 16.1979 17.7947 16.0625 18.1579 16.0625C18.5211 16.0625 18.8288 16.1979 19.0809 16.4687C19.3332 16.7396 19.4592 17.0521 19.4592 17.4062C19.4592 17.7812 19.3332 18.099 19.0809 18.3594Z" fill="#F3F0E3"/>
</svg>
