<svg width="30" height="30" viewBox="0 0 30 30" fill="none" xmlns="http://www.w3.org/2000/svg">
<g clip-path="url(#clip0_41_319)">
<path d="M19.6875 14.6999L16.7875 11.7999C16.6363 11.6143 16.4456 11.4648 16.2295 11.3621C16.0132 11.2594 15.7769 11.2061 15.5375 11.2061C15.2981 11.2061 15.0617 11.2594 14.8455 11.3621C14.6294 11.4648 14.4388 11.6143 14.2875 11.7999C12.9375 13.1499 16.025 18.3124 14.675 19.6499C14.5179 19.826 14.3252 19.967 14.1099 20.0635C13.8945 20.16 13.661 20.21 13.425 20.21C13.189 20.21 12.9555 20.16 12.7401 20.0635C12.5247 19.967 12.3321 19.826 12.175 19.6499L9.375 16.7624" stroke="#F3F0E3" stroke-width="1.5" stroke-linecap="round" stroke-linejoin="round"/>
<path d="M17.625 12.6376L19.175 11.0876" stroke="#F3F0E3" stroke-width="1.5" stroke-linecap="round" stroke-linejoin="round"/>
<path d="M9.88751 20.3751L11.4375 18.8251" stroke="#F3F0E3" stroke-width="1.5" stroke-linecap="round" stroke-linejoin="round"/>
<path d="M21 6.81282C21 7.29022 21.1898 7.74804 21.5273 8.08562C21.8649 8.42318 22.3226 8.61282 22.8 8.61282C23.2775 8.61282 23.7353 8.42318 24.0729 8.08562C24.4104 7.74804 24.6 7.29022 24.6 6.81282C24.6 6.33543 24.4104 5.87759 24.0729 5.54003C23.7353 5.20247 23.2775 5.01282 22.8 5.01282C22.3226 5.01282 21.8649 5.20247 21.5273 5.54003C21.1898 5.87759 21 6.33543 21 6.81282Z" stroke="#F3F0E3" stroke-width="1.5" stroke-linecap="round" stroke-linejoin="round"/>
<path d="M27.125 0.937541H15.4125C15.148 0.939149 14.8864 0.994238 14.6438 1.0995C14.401 1.20475 14.182 1.358 14 1.55004L1.50001 14.8875C1.32218 15.0751 1.18423 15.2969 1.09451 15.5394C1.00479 15.7819 0.96516 16.04 0.978012 16.2982C0.990864 16.5564 1.05593 16.8094 1.16929 17.0416C1.28264 17.274 1.44193 17.481 1.63751 17.65L14.1375 28.5875C14.516 28.9173 15.0077 29.0871 15.509 29.0615C16.0104 29.0359 16.4821 28.8166 16.825 28.45L28.5375 15.95C28.8747 15.5964 29.0629 15.1263 29.0625 14.6375V2.86254C29.0625 2.60869 29.0124 2.35735 28.9147 2.12298C28.8172 1.8886 28.6744 1.67584 28.4943 1.49693C28.3143 1.318 28.1005 1.17647 27.8655 1.08047C27.6305 0.984468 27.3789 0.935893 27.125 0.937541Z" stroke="#F3F0E3" stroke-width="1.5" stroke-linecap="round" stroke-linejoin="round"/>
</g>
<defs>
<clipPath id="clip0_41_319">
<rect width="30" height="30" fill="white"/>
</clipPath>
</defs>
</svg>
