<svg width="35" height="35" viewBox="0 0 35 35" fill="none" xmlns="http://www.w3.org/2000/svg">
<path d="M17.5 17.4637C15.9688 17.4637 14.6745 16.935 13.6172 15.8777C12.5599 14.8205 12.0313 13.5262 12.0313 11.9949C12.0313 10.4637 12.5599 9.16941 13.6172 8.11212C14.6745 7.05483 15.9688 6.52618 17.5 6.52618C19.0313 6.52618 20.3255 7.05483 21.3828 8.11212C22.4401 9.16941 22.9688 10.4637 22.9688 11.9949C22.9688 13.5262 22.4401 14.8205 21.3828 15.8777C20.3255 16.935 19.0313 17.4637 17.5 17.4637ZM23.3333 29.1668V20.6356C23.8924 20.8057 24.4453 20.9941 24.9922 21.2007C25.5391 21.4072 26.092 21.6321 26.6511 21.8751C27.4289 22.2154 28.0425 22.7319 28.4922 23.4246C28.9419 24.1173 29.1667 24.889 29.1667 25.7397V26.9793C29.1667 27.5869 28.954 28.1035 28.5287 28.5288C28.1033 28.9541 27.5868 29.1668 26.9792 29.1668H23.3333ZM13.8542 24.4272V20.0522C14.4618 19.9307 15.0634 19.8395 15.6589 19.7788C16.2544 19.718 16.868 19.6876 17.5 19.6876C18.132 19.6876 18.7456 19.718 19.3412 19.7788C19.9367 19.8395 20.5382 19.9307 21.1458 20.0522V24.4272H13.8542ZM5.83334 26.9793V25.7397C5.83334 24.889 6.05209 24.1173 6.48959 23.4246C6.92709 22.7319 7.53471 22.2154 8.31251 21.8751C8.87156 21.6321 9.43054 21.4072 9.98959 21.2007C10.5486 20.9941 11.1076 20.7936 11.6667 20.5991V29.1668H8.02084C7.41323 29.1668 6.89671 28.9541 6.47136 28.5288C6.04602 28.1035 5.83334 27.5869 5.83334 26.9793Z" fill="#F3F0E3"/>
</svg>
