<svg width="40" height="40" viewBox="0 0 40 40" fill="none" xmlns="http://www.w3.org/2000/svg">
<path d="M7.5 18.4375H32.5C32.9144 18.4375 33.3118 18.6021 33.6049 18.8951C33.8979 19.1882 34.0625 19.5856 34.0625 20V20.7812C34.0625 23.125 30.1297 29.4891 27.8125 30.9375V32.5C27.8125 32.9144 27.6479 33.3118 27.3549 33.6049C27.0618 33.8979 26.6644 34.0625 26.25 34.0625H13.75C13.3356 34.0625 12.9382 33.8979 12.6451 33.6049C12.3521 33.3118 12.1875 32.9144 12.1875 32.5V30.9375C9.55156 29.2906 5.9375 23.125 5.9375 20.7812V20C5.9375 19.5856 6.10212 19.1882 6.39515 18.8951C6.68817 18.6021 7.0856 18.4375 7.5 18.4375Z" stroke="#F3F0E3" stroke-linecap="round" stroke-linejoin="round"/>
<path d="M30.1563 18.4375C30.7047 16.8484 30.8219 14.9438 30.9375 12.6344V10.625H27.4125C22.9906 10.625 20.2 11.8813 18.6 13.8688" stroke="#F3F0E3" stroke-linecap="round" stroke-linejoin="round"/>
<path d="M9.46094 18.45C9.24147 17.417 9.1082 16.3676 9.0625 15.3125V13.75H11.8047C13.3359 13.75 14.6187 13.9438 15.6781 14.2969" stroke="#F3F0E3" stroke-linecap="round" stroke-linejoin="round"/>
<path d="M13.75 13.75L15.3125 7.5L21.5625 11.4062" stroke="#F3F0E3" stroke-linecap="round" stroke-linejoin="round"/>
<path d="M21.5625 18.4375V17.6562C21.5625 16.6202 21.151 15.6267 20.4184 14.8941C19.6858 14.1615 18.6923 13.75 17.6562 13.75C16.6202 13.75 15.6267 14.1615 14.8941 14.8941C14.1615 15.6267 13.75 16.6202 13.75 17.6562V18.4375" stroke="#F3F0E3" stroke-linecap="round" stroke-linejoin="round"/>
</svg>
