<svg width="20" height="18" viewBox="0 0 20 18" fill="none" xmlns="http://www.w3.org/2000/svg">
<g clip-path="url(#clip0_66_24)">
<path d="M15.7288 5.60078H4.34071C4.28785 5.60061 4.23552 5.61118 4.18705 5.63182C4.13857 5.65245 4.095 5.6827 4.05908 5.72066C4.02316 5.75862 3.99569 5.80346 3.97838 5.85234C3.96108 5.90122 3.95433 5.95308 3.95856 6.00464L4.93687 16.5799C4.9713 16.9528 5.14743 17.2995 5.43046 17.5515C5.71348 17.8036 6.08281 17.9425 6.46547 17.941H13.604C13.9867 17.9425 14.356 17.8036 14.6391 17.5515C14.9221 17.2995 15.0982 16.9528 15.1327 16.5799L16.1492 5.97473C16.1534 5.92316 16.1467 5.8713 16.1294 5.82242C16.112 5.77354 16.0846 5.7287 16.0487 5.69075C16.0127 5.65279 15.9692 5.62254 15.9207 5.6019C15.8722 5.58127 15.8199 5.5707 15.767 5.57086L15.7288 5.60078ZM8.69723 15.3234C8.69723 15.4722 8.63684 15.6148 8.52934 15.72C8.42184 15.8252 8.27603 15.8843 8.124 15.8843C7.97198 15.8843 7.82617 15.8252 7.71867 15.72C7.61117 15.6148 7.55078 15.4722 7.55078 15.3234V8.59235C7.55078 8.44359 7.61117 8.30092 7.71867 8.19572C7.82617 8.09053 7.97198 8.03143 8.124 8.03143C8.27603 8.03143 8.42184 8.09053 8.52934 8.19572C8.63684 8.30092 8.69723 8.44359 8.69723 8.59235V15.3234ZM12.5187 15.3234C12.5187 15.4722 12.4583 15.6148 12.3508 15.72C12.2433 15.8252 12.0975 15.8843 11.9455 15.8843C11.7935 15.8843 11.6477 15.8252 11.5402 15.72C11.4327 15.6148 11.3723 15.4722 11.3723 15.3234V8.59235C11.3723 8.44359 11.4327 8.30092 11.5402 8.19572C11.6477 8.09053 11.7935 8.03143 11.9455 8.03143C12.0975 8.03143 12.2433 8.09053 12.3508 8.19572C12.4583 8.30092 12.5187 8.44359 12.5187 8.59235V15.3234Z" fill="#F3F0E3"/>
<path d="M17.6778 2.98315H14.0473C13.9967 2.98315 13.9481 2.96345 13.9122 2.92839C13.8764 2.89332 13.8563 2.84577 13.8563 2.79618V1.86131C13.8563 1.36543 13.655 0.889852 13.2966 0.539209C12.9383 0.188566 12.4523 -0.00842285 11.9455 -0.00842285L8.124 -0.00842285C7.61724 -0.00842285 7.13123 0.188566 6.7729 0.539209C6.41456 0.889852 6.21325 1.36543 6.21325 1.86131V2.79618C6.21325 2.84577 6.19312 2.89332 6.15729 2.92839C6.12145 2.96345 6.07285 2.98315 6.02218 2.98315H2.39174C2.18904 2.98315 1.99463 3.06195 1.8513 3.2022C1.70797 3.34246 1.62744 3.53269 1.62744 3.73104C1.62744 3.9294 1.70797 4.11963 1.8513 4.25988C1.99463 4.40014 2.18904 4.47894 2.39174 4.47894H17.6778C17.8805 4.47894 18.0749 4.40014 18.2182 4.25988C18.3616 4.11963 18.4421 3.9294 18.4421 3.73104C18.4421 3.53269 18.3616 3.34246 18.2182 3.2022C18.0749 3.06195 17.8805 2.98315 17.6778 2.98315ZM7.74185 2.79618V1.86131C7.74185 1.76213 7.78212 1.66702 7.85378 1.59689C7.92545 1.52676 8.02265 1.48736 8.124 1.48736H11.9455C12.0469 1.48736 12.1441 1.52676 12.2157 1.59689C12.2874 1.66702 12.3277 1.76213 12.3277 1.86131V2.79618C12.3277 2.84577 12.3075 2.89332 12.2717 2.92839C12.2359 2.96345 12.1873 2.98315 12.1366 2.98315H7.93293C7.88225 2.98315 7.83365 2.96345 7.79782 2.92839C7.76198 2.89332 7.74185 2.84577 7.74185 2.79618Z" fill="#F3F0E3"/>
</g>
<defs>
<clipPath id="clip0_66_24">
<rect width="18.3432" height="17.9494" fill="white" transform="translate(0.863159 -0.00842285)"/>
</clipPath>
</defs>
</svg>
