<svg width="60" height="70" viewBox="0 0 60 70" fill="none" xmlns="http://www.w3.org/2000/svg">
<path d="M1.60413 0.144372C1.23527 0.255844 0.977067 0.627417 0.977067 1.03615C0.977067 1.3334 1.23527 1.5935 2.30497 2.48528C3.22713 3.22842 4.00174 4.19451 4.44437 5.12344C5.07144 6.53542 5.10832 6.72121 5.1821 11.7003C5.29275 17.4968 5.29275 53.0935 5.1821 57.4037C5.10832 60.4506 5.10832 60.7478 4.85012 61.7511C4.29683 63.7947 3.22713 65.504 1.34593 67.2504C0.718864 67.8077 0.202456 68.4022 0.128684 68.5509C-0.0926336 68.9968 -0.0188613 69.4426 0.276228 69.7399L0.534432 70H20.121C32.5148 70 40.2609 69.9628 41.183 69.8885C43.8757 69.6656 46.2365 69.0711 48.5234 67.9563C55.0892 64.8351 59.5524 58.1468 59.9581 50.9383C60.327 44.6216 58.2614 39.7168 53.6506 35.964C52.3227 34.8864 50.4415 33.846 48.5603 33.14C48.4127 33.1029 48.5603 32.9542 49.4456 32.5083C50.0357 32.2111 50.8841 31.728 51.2899 31.4308C54.1301 29.6101 56.3802 26.4145 57.2654 23.0332C57.5236 21.9928 57.6712 21.1011 57.5605 21.1011C57.4868 21.1011 57.0441 21.2868 56.4908 21.5098C54.2777 22.4016 52.212 21.9928 50.589 20.3579C49.7775 19.5776 49.3718 18.9459 49.0029 17.7941L48.7447 17.0509H47.7488C45.6094 17.1624 43.9495 16.3078 42.8798 14.6729C42.1421 13.4467 41.9208 11.7374 42.4003 10.214L42.6216 9.58231L42.3634 9.39653C42.2159 9.32221 41.6995 8.80201 41.183 8.28181C40.224 7.31572 39.6707 6.38679 39.4494 5.4207C39.265 4.6404 39.3018 3.37705 39.5601 2.70822C39.9658 1.66782 39.9289 1.63066 39.0805 1.3334C37.3469 0.776045 34.1378 0.255844 31.2975 0.107215C28.3835 -0.041414 2.12054 -0.0414142 1.60413 0.144372ZM20.9325 3.97157C21.2645 4.23167 21.5227 4.71471 21.5227 5.19776C21.5227 5.53217 21.412 5.75512 21.1169 6.16385L20.7112 6.68405L20.8219 8.54191C20.8956 9.54516 21.0432 11.3287 21.1169 12.4434C21.3383 15.1931 21.7809 22.4016 21.9653 25.4113C22.1498 28.7926 22.1498 38.4535 21.9653 40.0513C21.744 41.9834 21.3014 44.6216 20.8956 46.5166C20.3054 49.3034 18.4242 56.7349 18.0923 57.6638C18.0677 57.7629 17.9447 57.6762 17.7234 57.4037C17.3177 56.8463 16.9857 56.5862 16.6168 56.5862C15.8053 56.5862 15.3258 57.2551 15.1414 58.6299C15.0676 59.0386 15.0307 60.5621 15.0307 62.0483C15.0307 64.2778 14.9938 64.7608 14.8463 64.9466C14.6987 65.2067 14.625 65.2067 13.334 65.2067C11.3421 65.2067 11.5265 65.6526 11.6003 60.5992C11.6372 56.772 11.6741 56.3633 11.8954 55.6201C12.4118 53.7251 12.5225 53.1678 12.6331 51.6815C12.7069 50.7897 12.7438 48.1515 12.7438 45.7363C12.7438 38.8622 12.8913 36.1497 13.7397 27.7151C13.961 25.2998 14.293 21.807 14.4774 19.912C14.6619 18.017 14.8463 16.0105 14.9201 15.416C15.1045 13.7439 15.0676 13.521 14.6987 12.9636C14.2561 12.2948 14.2561 11.5888 14.6987 11.0686C14.9569 10.7713 15.0676 10.7342 15.5471 10.7342C16.0635 10.7342 16.1742 10.7713 16.3955 11.0314C16.875 11.7003 16.8381 12.4063 16.1742 13.1494L15.8791 13.4838L16.1004 16.4564C16.2111 18.0913 16.5062 21.7699 16.6906 24.631C16.9119 27.4921 17.0963 29.9073 17.1332 29.9816C17.1701 30.0931 17.2808 30.1674 17.3545 30.1674C17.6128 30.1674 17.6865 29.6472 18.9775 15.2302C19.2357 12.2948 19.5308 9.13643 19.6046 8.24465L19.7522 6.60973L19.4202 6.12669C18.6825 5.04913 19.1251 3.82294 20.2686 3.82294C20.4899 3.82294 20.8219 3.89725 20.9325 3.97157ZM30.4492 4.19451C30.6336 4.41746 30.818 4.71471 30.8549 4.86334C30.9656 5.19776 30.6705 5.97806 30.3016 6.31248C30.1172 6.49826 30.0434 6.68405 30.0434 6.94415C30.0434 7.12993 30.2647 9.28506 30.5229 11.7003C30.818 14.1155 31.3344 19.2432 31.7033 23.0704C32.109 26.8604 32.4779 30.3161 32.5148 30.6876C32.6254 31.4308 32.8099 31.728 32.9574 31.4679C33.0681 31.245 33.1418 30.6133 33.6214 24.8539C33.732 23.3677 33.9902 20.3208 34.1378 18.1285C34.3222 15.899 34.5066 13.9669 34.5435 13.7811C34.5804 13.5581 34.5066 13.3724 34.2853 13.0008C33.5845 11.9232 33.9533 10.8085 35.0599 10.697C35.5026 10.6599 35.5763 10.6599 35.9452 11.0314C36.3141 11.403 36.351 11.4773 36.2772 12.0347C36.2403 12.4806 36.1665 12.7035 35.8345 13.1123C35.6132 13.4095 35.4288 13.7068 35.4288 13.8182C35.4288 13.8926 35.7239 16.5679 36.0927 19.7634C37.7157 34.1061 37.7157 34.4405 37.8264 42.0949C37.8633 47.1111 37.9002 48.4488 38.0108 48.5603C38.3428 48.8947 38.5641 48.0401 38.9699 44.9932C39.0805 44.2129 39.1912 43.3954 39.2281 43.0982C39.3018 42.5408 39.3387 42.5779 39.5969 44.25C39.7076 44.8445 40.0027 46.4423 40.2978 47.8543L40.7773 50.3438V57.3665C40.8142 62.8286 40.7773 64.4264 40.6666 64.6122C40.5929 64.7608 40.3347 64.9095 40.1133 64.9838C39.6338 65.1324 35.9821 65.1324 35.7608 64.9838C35.6132 64.9095 35.6132 64.3521 35.5395 61.5281C35.5026 58.7042 35.4288 58.1097 35.2812 57.6638C34.8017 56.3261 33.5476 56.2518 32.773 57.4408L32.4779 57.9611L32.2935 57.5152C31.6664 56.066 28.8262 45.1418 28.3098 42.355C27.5351 37.8218 27.4245 33.0657 27.8671 23.5534C28.0884 19.206 28.568 12.2205 28.9368 8.54191L29.0844 6.64689L28.7524 6.201C28.1991 5.4207 28.1991 4.71471 28.7524 4.1202C29.0475 3.8601 29.195 3.82294 29.6008 3.82294C30.0803 3.82294 30.191 3.8601 30.4492 4.19451ZM25.1007 28.421C25.2113 32.2111 25.2851 32.8056 25.6171 32.4712C25.7277 32.3597 26.0228 30.7619 26.0597 30.1674C26.0597 29.9445 26.1335 30.3532 26.1704 31.022C26.2441 32.7313 26.281 36.1126 26.1704 37.3388L26.1335 38.342L25.7646 37.5617C25.5064 36.9672 25.3589 36.7814 25.1375 36.7443C24.4736 36.5585 24.031 36.9672 23.7359 38.1191C23.5883 38.6764 23.5883 38.4907 23.5883 35.5924C23.5883 33.8832 23.6252 31.9881 23.6621 31.3565L23.7359 30.2046L23.8096 31.0592C23.8465 31.5422 23.9203 32.0625 23.9572 32.1739C24.031 32.4712 24.326 32.5455 24.326 32.2854C24.326 32.1739 24.3629 31.4308 24.4736 30.6133C24.5474 29.7959 24.6949 28.4954 24.7318 27.7522C24.8793 26.3402 24.9531 25.8572 25.0269 25.9315C25.0269 25.9315 25.1007 27.0462 25.1007 28.421ZM25.5802 42.2435C25.7646 42.4665 26.0228 42.8752 26.1704 43.1725C27.2032 45.2533 29.4532 53.4279 30.1541 57.7753C30.5229 60.1162 30.7074 63.9434 30.486 64.7608C30.3385 65.2439 30.2278 65.3182 29.6377 65.3182C29.0844 65.3182 29.0844 65.281 29.0475 63.3489C29.0475 61.1194 28.7155 60.2276 28.3835 61.4167C28.1991 61.974 28.0516 62.903 27.9409 64.4636C27.8671 65.0581 27.8302 65.2439 27.6458 65.3182C27.5351 65.3925 27.4245 65.3925 27.3507 65.3925C27.3138 65.3553 27.2401 64.6865 27.2032 63.9434C26.9819 59.4845 26.613 57.701 25.8753 57.0321C24.3998 55.7688 23.4408 58.1097 23.1826 63.6461C23.1088 64.6122 23.035 65.1324 22.9613 65.2067C22.8875 65.281 22.5924 65.3182 22.3342 65.281L21.8916 65.2439L21.8178 63.9062C21.7071 61.7882 21.5227 60.7478 21.2276 60.9708C21.0063 61.1566 20.7112 62.5314 20.6743 63.8319C20.6374 64.5007 20.5636 65.0952 20.4899 65.1696C20.3423 65.3925 19.5677 65.3553 19.4571 65.0952C19.3095 64.8351 19.3095 62.197 19.4571 60.7478C19.6046 59.1129 20.0104 57.2551 21.0063 53.1678C22.703 46.4795 23.6621 43.5069 24.5842 42.2807C24.9531 41.8348 25.1375 41.7976 25.5802 42.2435Z" fill="#F3F0E3"/>
</svg>
